<svg xmlns="http://www.w3.org/2000/svg" viewBox="0 0 440 280">
  <defs>
    <linearGradient id="bg" x1="0" y1="0" x2="1" y2="1">
      <stop offset="0%" stop-color="#003d73"/>
      <stop offset="100%" stop-color="#005499"/>
    </linearGradient>
  </defs>
  <rect width="440" height="280" rx="0" fill="url(#bg)"/>

  <!-- Pin body -->
  <g transform="translate(90, 20) scale(0.7)">
    <path d="M64 4C38.6 4 18 24.6 18 50c0 34 46 74 46 74s46-40 46-74C110 24.6 89.4 4 64 4z" fill="#fff" fill-opacity="0.15"/>
    <path d="M64 4C38.6 4 18 24.6 18 50c0 34 46 74 46 74s46-40 46-74C110 24.6 89.4 4 64 4z" fill="none" stroke="#fff" stroke-width="3" stroke-opacity="0.5"/>
    <circle cx="46" cy="56" r="13" fill="none" stroke="#fff" stroke-width="4"/>
    <circle cx="82" cy="56" r="13" fill="none" stroke="#fff" stroke-width="4"/>
    <polyline points="46,56 58,36 82,56 70,56 58,36" fill="none" stroke="#fff" stroke-width="4" stroke-linejoin="round" stroke-linecap="round"/>
    <line x1="58" y1="36" x2="68" y2="34" stroke="#fff" stroke-width="4" stroke-linecap="round"/>
    <line x1="68" y1="56" x2="64" y2="46" stroke="#fff" stroke-width="4" stroke-linecap="round"/>
  </g>

  <!-- Text -->
  <text x="220" y="185" text-anchor="middle" font-family="system-ui, -apple-system, Segoe UI, Helvetica, Arial, sans-serif" font-size="28" font-weight="700" fill="#fff" letter-spacing="-0.5">Bi-Router</text>
  <text x="220" y="220" text-anchor="middle" font-family="system-ui, -apple-system, Segoe UI, Helvetica, Arial, sans-serif" font-size="14" fill="#fff" fill-opacity="0.8">Plan routes on Strava's heatmap</text>
  <text x="220" y="244" text-anchor="middle" font-family="system-ui, -apple-system, Segoe UI, Helvetica, Arial, sans-serif" font-size="14" fill="#fff" fill-opacity="0.8">Navigate on your phone</text>
</svg>
