<svg xmlns="http://www.w3.org/2000/svg" viewBox="0 0 128 128">
  <!-- Pin body -->
  <path d="M64 4C38.6 4 18 24.6 18 50c0 34 46 74 46 74s46-40 46-74C110 24.6 89.4 4 64 4z" fill="#005499"/>
  <path d="M64 4C38.6 4 18 24.6 18 50c0 34 46 74 46 74s46-40 46-74C110 24.6 89.4 4 64 4z" fill="none" stroke="#fff" stroke-width="3" stroke-opacity="0.3"/>
  <!-- Bike icon (simplified) -->
  <!-- Left wheel -->
  <circle cx="46" cy="56" r="13" fill="none" stroke="#fff" stroke-width="4"/>
  <!-- Right wheel -->
  <circle cx="82" cy="56" r="13" fill="none" stroke="#fff" stroke-width="4"/>
  <!-- Frame -->
  <polyline points="46,56 58,36 82,56 70,56 58,36" fill="none" stroke="#fff" stroke-width="4" stroke-linejoin="round" stroke-linecap="round"/>
  <!-- Handlebar -->
  <line x1="58" y1="36" x2="68" y2="34" stroke="#fff" stroke-width="4" stroke-linecap="round"/>
  <!-- Seat -->
  <line x1="68" y1="56" x2="64" y2="46" stroke="#fff" stroke-width="4" stroke-linecap="round"/>
</svg>
